<svg width="24" height="24" viewBox="0 0 24 24" fill="none" xmlns="http://www.w3.org/2000/svg">
<path d="M21 5.99988V3.50507C21 2.92184 20.3109 2.61239 19.875 2.99987C19.2334 3.57017 18.2666 3.57017 17.625 2.99987C16.9834 2.42957 16.0166 2.42957 15.375 2.99987C14.7334 3.57017 13.7666 3.57017 13.125 2.99987C12.4834 2.42957 11.5166 2.42957 10.875 2.99987C10.2334 3.57017 9.26659 3.57017 8.625 2.99987C7.98341 2.42957 7.01659 2.42957 6.375 2.99987C5.73341 3.57017 4.76659 3.57017 4.125 2.99987C3.68909 2.61239 3 2.92184 3 3.50507V13.9999M21 9.99988V20.4948C21 21.0781 20.3109 21.3875 19.875 21C19.2334 20.4297 18.2666 20.4297 17.625 21C16.9834 21.5703 16.0166 21.5703 15.375 21C14.7334 20.4297 13.7666 20.4297 13.125 21C12.4834 21.5703 11.5166 21.5703 10.875 21C10.2334 20.4297 9.26659 20.4297 8.625 21C7.98341 21.5703 7.01659 21.5703 6.375 21C5.73341 20.4297 4.76659 20.4297 4.125 21C3.68909 21.3875 3 21.0781 3 20.4948V17.9999" stroke="white" stroke-width="1.5" stroke-linecap="round"/>
<path d="M7.5 15.5H11.5M16.5 15.5H14.5" stroke="white" stroke-width="1.5" stroke-linecap="round"/>
<path d="M16.5 12H12.5M7.5 12H9.5" stroke="white" stroke-width="1.5" stroke-linecap="round"/>
<path d="M7.5 8.5H16.5" stroke="white" stroke-width="1.5" stroke-linecap="round"/>
</svg>
